<svg width="36" height="36" viewBox="0 0 36 36" fill="none" xmlns="http://www.w3.org/2000/svg">
<g clip-path="url(#clip0_308_325)">
<path fill-rule="evenodd" clip-rule="evenodd" d="M25.265 9.82154C23.4064 8.04899 20.9262 7.08334 18.36 7.12302C13.664 7.12302 9.67582 10.2911 8.25379 14.5571C7.4998 16.7926 7.4998 19.2134 8.25379 21.449H8.26039C9.68901 25.7084 13.6706 28.8765 18.3666 28.8765C20.7906 28.8765 22.8717 28.2565 24.4846 27.1613V27.1569C26.3828 25.9002 27.6791 23.9226 28.0826 21.6871H18.36V14.7556H35.3382C35.5498 15.9594 35.649 17.1896 35.649 18.4132C35.649 23.888 33.6924 28.5166 30.2881 31.6516L30.2916 31.6544C27.3087 34.4058 23.2146 35.9998 18.36 35.9998C11.5542 35.9998 5.33039 32.1637 2.27472 26.0854C-0.278266 20.9992 -0.278259 15.0069 2.27474 9.92079C5.33041 3.83591 11.5542 -0.000251845 18.36 -0.000251845C22.831 -0.0531638 27.15 1.62679 30.4041 4.68246L25.265 9.82154Z" fill="white"/>
</g>
<defs>
<clipPath id="clip0_308_325">
<rect width="36" height="36" fill="white"/>
</clipPath>
</defs>
</svg>
