<svg width="182" height="171" viewBox="0 0 182 171" fill="none" xmlns="http://www.w3.org/2000/svg">
<path d="M110.899 14.29C110.899 19.2435 108.805 23.994 105.077 27.4966C101.349 30.9992 96.2932 32.9669 91.0211 32.9669C85.7491 32.9669 80.6929 30.9992 76.965 27.4966C73.2371 23.994 71.1428 19.2435 71.1428 14.29" stroke="#1E1E1E" stroke-width="1.5" stroke-miterlimit="10"/>
<path d="M42.9429 87.3778L19.1059 82.1788C18.4333 82.028 17.8001 81.7511 17.2443 81.3646C16.6885 80.9781 16.2217 80.49 15.8718 79.9296C15.5219 79.3693 15.2962 78.7482 15.2083 78.1038C15.1203 77.4593 15.172 76.8049 15.3601 76.1798L28.4918 34.5667C28.8187 33.4282 29.5752 32.4403 30.6201 31.7871L65.2901 15.0299C66.1219 14.5267 67.0889 14.2562 68.0782 14.25H113.9C114.883 14.2556 115.844 14.5263 116.667 15.0299L151.359 31.7871C152.412 32.432 153.171 33.4233 153.487 34.5667L166.64 76.1798C166.828 76.8049 166.88 77.4593 166.792 78.1038C166.704 78.7482 166.478 79.3693 166.128 79.9296C165.778 80.49 165.311 80.9781 164.756 81.3646C164.2 81.7511 163.567 82.028 162.894 82.1788L139.057 87.3778" stroke="#1E1E1E" stroke-width="1.5" stroke-miterlimit="10"/>
<path d="M42.9429 72.3604V132.53C42.9354 136.615 44.5913 140.548 47.5711 143.522C50.5509 146.497 54.6289 148.288 58.969 148.528V148.528C69.2301 150.281 79.6343 151.191 90.0635 151.247H92.0002C102.422 151.191 112.819 150.281 123.073 148.528C127.417 148.293 131.501 146.504 134.485 143.529C137.469 140.554 139.128 136.618 139.121 132.53V72.3604" stroke="#1E1E1E" stroke-width="1.5" stroke-miterlimit="10" stroke-linecap="round"/>
</svg>
